<?xml version="1.0" encoding="UTF-8"?>
<!DOCTYPE svg PUBLIC "-//W3C//DTD SVG 1.1//EN" "http://www.w3.org/Graphics/SVG/1.1/DTD/svg11.dtd">
<svg xmlns="http://www.w3.org/2000/svg" version="1.1" width="87px" height="65px" style="shape-rendering:geometricPrecision; text-rendering:geometricPrecision; image-rendering:optimizeQuality; fill-rule:evenodd; clip-rule:evenodd" xmlns:xlink="http://www.w3.org/1999/xlink">
<g><path style="opacity:1" fill="#0a2132" d="M -0.5,-0.5 C 12.1667,-0.5 24.8333,-0.5 37.5,-0.5C 37.5,0.5 37.5,1.5 37.5,2.5C 42.5,2.5 47.5,2.5 52.5,2.5C 52.5,3.83333 52.5,5.16667 52.5,6.5C 56.634,5.94295 60.3007,6.94295 63.5,9.5C 65.4771,8.54015 67.4771,7.54015 69.5,6.5C 71.1634,7.87536 72.4968,7.54202 73.5,5.5C 74.5223,5.85549 75.189,6.52216 75.5,7.5C 65.9974,14.8465 56.164,21.8465 46,28.5C 45.1681,37.1858 45.3348,45.8525 46.5,54.5C 47.1667,46.1667 47.8333,37.8333 48.5,29.5C 55.2019,25.1143 61.8686,20.781 68.5,16.5C 66.9689,17.9245 67.3023,18.5912 69.5,18.5C 63.5131,22.9703 57.3465,27.3036 51,31.5C 50.8333,33.5 50.6667,35.5 50.5,37.5C 50.5391,39.9522 51.2057,41.9522 52.5,43.5C 51.7913,48.099 51.6246,52.7657 52,57.5C 51.6667,56.1667 51.3333,54.8333 51,53.5C 50.3333,55.5 49.6667,57.5 49,59.5C 48,59.1667 47,58.8333 46,58.5C 45.5172,59.448 45.3505,60.448 45.5,61.5C 43.139,61.3259 40.8056,60.9926 38.5,60.5C 38.3287,57.2027 38.9954,56.8694 40.5,59.5C 41.5937,58.132 41.2603,56.9653 39.5,56C 40.7375,55.7679 41.7375,55.2679 42.5,54.5C 42.8314,45.8078 42.498,37.1411 41.5,28.5C 30.8333,21.1667 20.1667,13.8333 9.5,6.5C 8.71764,8.32932 9.3843,9.82932 11.5,11C 21.0868,17.3764 30.5868,23.8764 40,30.5C 40.4997,38.4931 40.6664,46.4931 40.5,54.5C 40.1667,54.5 39.8333,54.5 39.5,54.5C 40.1299,46.7572 39.4633,39.4238 37.5,32.5C 37.1667,32.5 36.8333,32.5 36.5,32.5C 29.82,27.1691 22.82,22.1691 15.5,17.5C 14.1667,18.5 14.1667,19.5 15.5,20.5C 21.5286,24.5102 27.5286,28.5102 33.5,32.5C 33.762,33.9778 33.4287,35.3112 32.5,36.5C 29.864,35.0295 27.364,33.3628 25,31.5C 24.3333,32.1667 23.6667,32.8333 23,33.5C 21.1642,32.3306 19.9976,30.664 19.5,28.5C 18.2713,27.7189 16.938,27.2189 15.5,27C 16.0164,24.9672 15.3497,24.9672 13.5,27C 10.854,27.4974 8.1873,27.6641 5.5,27.5C 5.5,30.1667 5.5,32.8333 5.5,35.5C 3.5,35.5 1.5,35.5 -0.5,35.5C -0.5,23.5 -0.5,11.5 -0.5,-0.5 Z"/></g>
<g><path style="opacity:1" fill="#012036" d="M 37.5,-0.5 C 53.8333,-0.5 70.1667,-0.5 86.5,-0.5C 86.5,21.1667 86.5,42.8333 86.5,64.5C 64.8333,64.5 43.1667,64.5 21.5,64.5C 21.5,62.8333 21.5,61.1667 21.5,59.5C 24.1667,59.5 26.8333,59.5 29.5,59.5C 29.5,56.8333 29.5,54.1667 29.5,51.5C 31.8333,51.5 34.1667,51.5 36.5,51.5C 36.3433,52.8734 36.51,54.2068 37,55.5C 37.6708,54.7476 38.5041,54.4142 39.5,54.5C 39.8333,54.5 40.1667,54.5 40.5,54.5C 41.1667,54.5 41.8333,54.5 42.5,54.5C 41.7375,55.2679 40.7375,55.7679 39.5,56C 41.2603,56.9653 41.5937,58.132 40.5,59.5C 38.9954,56.8694 38.3287,57.2027 38.5,60.5C 40.8056,60.9926 43.139,61.3259 45.5,61.5C 45.3505,60.448 45.5172,59.448 46,58.5C 47,58.8333 48,59.1667 49,59.5C 49.6667,57.5 50.3333,55.5 51,53.5C 51.3333,54.8333 51.6667,56.1667 52,57.5C 51.6246,52.7657 51.7913,48.099 52.5,43.5C 52.1774,39.774 52.5108,36.1073 53.5,32.5C 59.8913,28.6444 65.8913,24.3111 71.5,19.5C 71.0431,18.7025 70.3764,18.3691 69.5,18.5C 67.3023,18.5912 66.9689,17.9245 68.5,16.5C 71.4459,13.6869 74.7792,11.3535 78.5,9.5C 79.404,8.79105 79.7373,7.79105 79.5,6.5C 78.209,6.26269 77.209,6.59603 76.5,7.5C 76.1667,7.5 75.8333,7.5 75.5,7.5C 75.189,6.52216 74.5223,5.85549 73.5,5.5C 72.4968,7.54202 71.1634,7.87536 69.5,6.5C 67.4771,7.54015 65.4771,8.54015 63.5,9.5C 60.3007,6.94295 56.634,5.94295 52.5,6.5C 52.5,5.16667 52.5,3.83333 52.5,2.5C 47.5,2.5 42.5,2.5 37.5,2.5C 37.5,1.5 37.5,0.5 37.5,-0.5 Z"/></g>
<g><path style="opacity:1" fill="#58768a" d="M 76.5,7.5 C 77.209,6.59603 78.209,6.26269 79.5,6.5C 79.7373,7.79105 79.404,8.79105 78.5,9.5C 78.5,8.16667 77.8333,7.5 76.5,7.5 Z"/></g>
<g><path style="opacity:1" fill="#d1e3ec" d="M 42.5,54.5 C 41.8333,54.5 41.1667,54.5 40.5,54.5C 40.6664,46.4931 40.4997,38.4931 40,30.5C 30.5868,23.8764 21.0868,17.3764 11.5,11C 9.3843,9.82932 8.71764,8.32932 9.5,6.5C 20.1667,13.8333 30.8333,21.1667 41.5,28.5C 42.498,37.1411 42.8314,45.8078 42.5,54.5 Z"/></g>
<g><path style="opacity:1" fill="#d0e0e7" d="M 25.5,12.5 C 27.3084,12.4914 28.9751,12.9914 30.5,14C 34.9936,17.4141 39.6603,20.5808 44.5,23.5C 49.3456,20.2433 54.0122,16.7433 58.5,13C 59.635,12.2506 60.635,12.4173 61.5,13.5C 56.3363,18.5006 50.5029,22.5006 44,25.5C 36.9765,22.2509 30.8098,17.9176 25.5,12.5 Z"/></g>
<g><path style="opacity:1" fill="#001e32" d="M 33.5,32.5 C 34.1667,32.5 34.5,32.8333 34.5,33.5C 34.5,36.8333 34.5,40.1667 34.5,43.5C 35.5,43.5 36.5,43.5 37.5,43.5C 37.5,39.8333 37.5,36.1667 37.5,32.5C 39.4633,39.4238 40.1299,46.7572 39.5,54.5C 38.5041,54.4142 37.6708,54.7476 37,55.5C 36.51,54.2068 36.3433,52.8734 36.5,51.5C 34.1667,51.5 31.8333,51.5 29.5,51.5C 29.5,54.1667 29.5,56.8333 29.5,59.5C 26.8333,59.5 24.1667,59.5 21.5,59.5C 21.5,61.1667 21.5,62.8333 21.5,64.5C 14.1667,64.5 6.83333,64.5 -0.5,64.5C -0.5,54.8333 -0.5,45.1667 -0.5,35.5C 1.5,35.5 3.5,35.5 5.5,35.5C 5.5,32.8333 5.5,30.1667 5.5,27.5C 8.1873,27.6641 10.854,27.4974 13.5,27C 15.3497,24.9672 16.0164,24.9672 15.5,27C 16.938,27.2189 18.2713,27.7189 19.5,28.5C 19.9976,30.664 21.1642,32.3306 23,33.5C 23.6667,32.8333 24.3333,32.1667 25,31.5C 27.364,33.3628 29.864,35.0295 32.5,36.5C 33.4287,35.3112 33.762,33.9778 33.5,32.5 Z"/></g>
<g><path style="opacity:1" fill="#d3e3e9" d="M 36.5,32.5 C 36.665,35.8499 36.4983,39.1832 36,42.5C 35.8195,39.3054 35.3195,36.3054 34.5,33.5C 34.5,32.8333 34.1667,32.5 33.5,32.5C 27.5286,28.5102 21.5286,24.5102 15.5,20.5C 14.1667,19.5 14.1667,18.5 15.5,17.5C 22.82,22.1691 29.82,27.1691 36.5,32.5 Z"/></g>
<g><path style="opacity:1" fill="#cfe2ea" d="M 69.5,18.5 C 70.3764,18.3691 71.0431,18.7025 71.5,19.5C 65.8913,24.3111 59.8913,28.6444 53.5,32.5C 52.5108,36.1073 52.1774,39.774 52.5,43.5C 51.2057,41.9522 50.5391,39.9522 50.5,37.5C 50.6667,35.5 50.8333,33.5 51,31.5C 57.3465,27.3036 63.5131,22.9703 69.5,18.5 Z"/></g>
<g><path style="opacity:1" fill="#d6e6ec" d="M 75.5,7.5 C 75.8333,7.5 76.1667,7.5 76.5,7.5C 77.8333,7.5 78.5,8.16667 78.5,9.5C 74.7792,11.3535 71.4459,13.6869 68.5,16.5C 61.8686,20.781 55.2019,25.1143 48.5,29.5C 47.8333,37.8333 47.1667,46.1667 46.5,54.5C 45.3348,45.8525 45.1681,37.1858 46,28.5C 56.164,21.8465 65.9974,14.8465 75.5,7.5 Z"/></g>
<g><path style="opacity:1" fill="#94a7b6" d="M 36.5,32.5 C 36.8333,32.5 37.1667,32.5 37.5,32.5C 37.5,36.1667 37.5,39.8333 37.5,43.5C 36.5,43.5 35.5,43.5 34.5,43.5C 34.5,40.1667 34.5,36.8333 34.5,33.5C 35.3195,36.3054 35.8195,39.3054 36,42.5C 36.4983,39.1832 36.665,35.8499 36.5,32.5 Z"/></g>
</svg>
